<?xml version="1.0" encoding="UTF-8" standalone="no"?>
<svg width="800" height="700" xmlns="http://www.w3.org/2000/svg">
  <!-- 背景 -->
  <rect width="800" height="700" fill="#f8f9fa" rx="10" ry="10"/>
  
  <!-- 标题 -->
  <text x="400" y="50" font-family="Arial, sans-serif" font-size="24" font-weight="bold" text-anchor="middle" fill="#333">RecyclerView ViewHolder获取流程</text>
  
  <!-- 起始节点 -->
  <rect x="300" y="80" width="200" height="50" fill="#ff9999" stroke="#ff0000" stroke-width="2" rx="25" ry="25"/>
  <text x="400" y="110" font-family="Arial, sans-serif" font-size="14" font-weight="bold" text-anchor="middle" fill="#333">tryGetViewHolderForPosition()</text>
  
  <!-- 第一级缓存判断 -->
  <rect x="230" y="160" width="340" height="60" fill="#ffe8cc" stroke="#ff9500" stroke-width="2" rx="8" ry="8"/>
  <text x="400" y="190" font-family="Arial, sans-serif" font-size="14" font-weight="bold" text-anchor="middle" fill="#333">尝试从mAttachedScrap/mChangedScrap获取</text>
  
  <!-- 判断是否找到 -->
  <polygon points="370,240 430,240 400,280" fill="#cccccc" stroke="#666666" stroke-width="2"/>
  <text x="400" y="260" font-family="Arial, sans-serif" font-size="12" text-anchor="middle" fill="#333">找到了吗?</text>
  
  <!-- 找到路径 -->
  <text x="490" y="260" font-family="Arial, sans-serif" font-size="12" text-anchor="start" fill="#333">是</text>
  <rect x="520" y="240" width="180" height="50" fill="#a5d6a7" stroke="#2e7d32" stroke-width="2" rx="8" ry="8"/>
  <text x="610" y="270" font-family="Arial, sans-serif" font-size="12" text-anchor="middle" fill="#333">返回ViewHolder</text>
  <text x="610" y="285" font-family="Arial, sans-serif" font-size="10" text-anchor="middle" fill="#555">(无需重新绑定)</text>
  
  <!-- 第二级缓存判断 -->
  <text x="360" y="310" font-family="Arial, sans-serif" font-size="12" text-anchor="end" fill="#333">否</text>
  <rect x="230" y="320" width="340" height="60" fill="#ccf2ff" stroke="#0085ff" stroke-width="2" rx="8" ry="8"/>
  <text x="400" y="350" font-family="Arial, sans-serif" font-size="14" font-weight="bold" text-anchor="middle" fill="#333">尝试从mCachedViews获取</text>
  
  <!-- 判断是否找到 -->
  <polygon points="370,400 430,400 400,440" fill="#cccccc" stroke="#666666" stroke-width="2"/>
  <text x="400" y="420" font-family="Arial, sans-serif" font-size="12" text-anchor="middle" fill="#333">找到了吗?</text>
  
  <!-- 找到路径 -->
  <text x="490" y="420" font-family="Arial, sans-serif" font-size="12" text-anchor="start" fill="#333">是</text>
  <rect x="520" y="400" width="180" height="50" fill="#a5d6a7" stroke="#2e7d32" stroke-width="2" rx="8" ry="8"/>
  <text x="610" y="430" font-family="Arial, sans-serif" font-size="12" text-anchor="middle" fill="#333">返回ViewHolder</text>
  <text x="610" y="445" font-family="Arial, sans-serif" font-size="10" text-anchor="middle" fill="#555">(无需重新绑定)</text>
  
  <!-- 第三级缓存判断 -->
  <text x="360" y="470" font-family="Arial, sans-serif" font-size="12" text-anchor="end" fill="#333">否</text>
  <rect x="230" y="480" width="340" height="60" fill="#ccffd8" stroke="#00cc66" stroke-width="2" rx="8" ry="8"/>
  <text x="400" y="510" font-family="Arial, sans-serif" font-size="14" font-weight="bold" text-anchor="middle" fill="#333">尝试从mViewCacheExtension获取</text>
  
  <!-- 判断是否找到 -->
  <polygon points="370,560 430,560 400,600" fill="#cccccc" stroke="#666666" stroke-width="2"/>
  <text x="400" y="580" font-family="Arial, sans-serif" font-size="12" text-anchor="middle" fill="#333">找到了吗?</text>
  
  <!-- 找到路径 -->
  <text x="490" y="580" font-family="Arial, sans-serif" font-size="12" text-anchor="start" fill="#333">是</text>
  <rect x="520" y="560" width="180" height="50" fill="#a5d6a7" stroke="#2e7d32" stroke-width="2" rx="8" ry="8"/>
  <text x="610" y="590" font-family="Arial, sans-serif" font-size="12" text-anchor="middle" fill="#333">返回ViewHolder</text>
  <text x="610" y="605" font-family="Arial, sans-serif" font-size="10" text-anchor="middle" fill="#555">(可能需要重新绑定)</text>
  
  <!-- 第四级缓存判断 -->
  <text x="360" y="630" font-family="Arial, sans-serif" font-size="12" text-anchor="end" fill="#333">否</text>
  <rect x="210" y="640" width="380" height="60" fill="#e6ccff" stroke="#9933ff" stroke-width="2" rx="8" ry="8"/>
  <text x="400" y="670" font-family="Arial, sans-serif" font-size="14" font-weight="bold" text-anchor="middle" fill="#333">尝试从mRecyclerPool获取，或创建新的ViewHolder</text>
  <text x="400" y="685" font-family="Arial, sans-serif" font-size="10" text-anchor="middle" fill="#555">(需要重新绑定数据)</text>
  
  <!-- 连接线 -->
  <path d="M 400 130 L 400 160" stroke="#555" stroke-width="2" marker-end="url(#arrow)"/>
  <path d="M 400 220 L 400 240" stroke="#555" stroke-width="2"/>
  <path d="M 400 280 L 400 320" stroke="#555" stroke-width="2"/>
  <path d="M 400 380 L 400 400" stroke="#555" stroke-width="2"/>
  <path d="M 400 440 L 400 480" stroke="#555" stroke-width="2"/>
  <path d="M 400 540 L 400 560" stroke="#555" stroke-width="2"/>
  <path d="M 400 600 L 400 640" stroke="#555" stroke-width="2"/>
  
  <!-- 横向连接线 -->
  <path d="M 430 240 L 520 240 L 520 265" stroke="#555" stroke-width="2" marker-end="url(#arrow)"/>
  <path d="M 430 400 L 520 400 L 520 425" stroke="#555" stroke-width="2" marker-end="url(#arrow)"/>
  <path d="M 430 560 L 520 560 L 520 585" stroke="#555" stroke-width="2" marker-end="url(#arrow)"/>
  
  <!-- 箭头标记定义 -->
  <defs>
    <marker id="arrow" markerWidth="10" markerHeight="10" refX="9" refY="3" orient="auto" markerUnits="strokeWidth">
      <path d="M0,0 L0,6 L9,3 z" fill="#555"/>
    </marker>
  </defs>
</svg> 