<?xml version="1.0" encoding="UTF-8" standalone="no"?>
<svg width="800" height="600" xmlns="http://www.w3.org/2000/svg">
    <!-- 背景 -->
    <rect width="800" height="600" fill="#f5f5f5"/>
    
    <!-- 手机轮廓 -->
    <rect x="50" y="100" width="250" height="400" rx="20" ry="20" fill="#333" stroke="#000" stroke-width="2"/>
    <rect x="60" y="120" width="230" height="360" rx="5" ry="5" fill="#fff" stroke="#ddd" stroke-width="1"/>
    
    <!-- 状态栏 -->
    <rect x="60" y="120" width="230" height="25" fill="#eee"/>
    <text x="175" y="138" font-family="Arial" font-size="12" text-anchor="middle" fill="#555">RecyclerView</text>
    
    <!-- 显示的列表项 -->
    <rect x="70" y="155" width="210" height="50" rx="3" ry="3" fill="#e1f5fe" stroke="#81d4fa" stroke-width="1"/>
    <text x="175" y="185" font-family="Arial" font-size="14" text-anchor="middle" fill="#01579b">Item 1</text>
    
    <rect x="70" y="215" width="210" height="50" rx="3" ry="3" fill="#e1f5fe" stroke="#81d4fa" stroke-width="1"/>
    <text x="175" y="245" font-family="Arial" font-size="14" text-anchor="middle" fill="#01579b">Item 2</text>
    
    <rect x="70" y="275" width="210" height="50" rx="3" ry="3" fill="#e1f5fe" stroke="#81d4fa" stroke-width="1"/>
    <text x="175" y="305" font-family="Arial" font-size="14" text-anchor="middle" fill="#01579b">Item 3</text>
    
    <rect x="70" y="335" width="210" height="50" rx="3" ry="3" fill="#e1f5fe" stroke="#81d4fa" stroke-width="1"/>
    <text x="175" y="365" font-family="Arial" font-size="14" text-anchor="middle" fill="#01579b">Item 4</text>
    
    <rect x="70" y="395" width="210" height="50" rx="3" ry="3" fill="#e1f5fe" stroke="#81d4fa" stroke-width="1"/>
    <text x="175" y="425" font-family="Arial" font-size="14" text-anchor="middle" fill="#01579b">Item 5</text>
    
    <!-- 箭头指示滚动方向 -->
    <path d="M 190,465 L 190,495 L 180,485 M 190,495 L 200,485" stroke="#666" stroke-width="2" fill="none"/>
    <text x="210" y="480" font-family="Arial" font-size="12" fill="#666">滚动方向</text>
    
    <!-- 添加滚出屏幕的items -->
    <rect x="70" y="490" width="210" height="50" rx="3" ry="3" fill="#e1f5fe" stroke="#81d4fa" stroke-width="1" opacity="0.6" stroke-dasharray="5,3"/>
    <text x="175" y="520" font-family="Arial" font-size="14" text-anchor="middle" fill="#01579b">Item 6 (已滚出)</text>
    
    <rect x="70" y="550" width="210" height="50" rx="3" ry="3" fill="#e1f5fe" stroke="#81d4fa" stroke-width="1" opacity="0.6" stroke-dasharray="5,3"/>
    <text x="175" y="580" font-family="Arial" font-size="14" text-anchor="middle" fill="#01579b">Item 7 (已滚出)</text>
    
    <!-- 添加滚出item到缓存的连接线 -->
    <path d="M 290,520 L 350,520 L 350,260 L 400,260" stroke="#0085ff" stroke-width="2" stroke-dasharray="5,3" fill="none" marker-end="url(#arrowhead)"/>
    <text x="350" y="500" font-family="Arial" font-size="10" fill="#666">存入mCachedViews</text>
    
    <!-- 缓存结构 -->
    <!-- 第一级缓存：mAttachedScrap和mChangedScrap -->
    <rect x="400" y="90" width="350" height="100" rx="5" ry="5" fill="#ffe8cc" stroke="#ff9500" stroke-width="2"/>
    <text x="575" y="115" font-family="Arial" font-size="16" font-weight="bold" text-anchor="middle" fill="#000">第一级缓存</text>
    <text x="575" y="140" font-family="Arial" font-size="14" text-anchor="middle" fill="#000">mAttachedScrap &amp; mChangedScrap</text>
    <text x="575" y="160" font-family="Arial" font-size="12" text-anchor="middle" fill="#555">临时存储屏幕上可见的ViewHolder</text>
    <text x="575" y="180" font-family="Arial" font-size="12" text-anchor="middle" fill="#555">无需重新绑定数据</text>
    
    <!-- 第二级缓存：mCachedViews -->
    <rect x="400" y="210" width="350" height="100" rx="5" ry="5" fill="#ccf2ff" stroke="#0085ff" stroke-width="2"/>
    <text x="575" y="235" font-family="Arial" font-size="16" font-weight="bold" text-anchor="middle" fill="#000">第二级缓存</text>
    <text x="575" y="260" font-family="Arial" font-size="14" text-anchor="middle" fill="#000">mCachedViews</text>
    <text x="575" y="280" font-family="Arial" font-size="12" text-anchor="middle" fill="#555">存储最近滚出屏幕的ViewHolder</text>
    <text x="575" y="300" font-family="Arial" font-size="12" text-anchor="middle" fill="#555">默认大小为2，无需重新绑定数据</text>
    
    <!-- 第三级缓存：mViewCacheExtension -->
    <rect x="400" y="330" width="350" height="100" rx="5" ry="5" fill="#ccffd8" stroke="#00cc66" stroke-width="2"/>
    <text x="575" y="355" font-family="Arial" font-size="16" font-weight="bold" text-anchor="middle" fill="#000">第三级缓存</text>
    <text x="575" y="380" font-family="Arial" font-size="14" text-anchor="middle" fill="#000">mViewCacheExtension</text>
    <text x="575" y="400" font-family="Arial" font-size="12" text-anchor="middle" fill="#555">开发者自定义的缓存逻辑</text>
    <text x="575" y="420" font-family="Arial" font-size="12" text-anchor="middle" fill="#555">可能需要重新绑定数据</text>
    
    <!-- 第四级缓存：mRecyclerPool -->
    <rect x="400" y="450" width="350" height="100" rx="5" ry="5" fill="#e6ccff" stroke="#9933ff" stroke-width="2"/>
    <text x="575" y="475" font-family="Arial" font-size="16" font-weight="bold" text-anchor="middle" fill="#000">第四级缓存</text>
    <text x="575" y="500" font-family="Arial" font-size="14" text-anchor="middle" fill="#000">mRecyclerPool</text>
    <text x="575" y="520" font-family="Arial" font-size="12" text-anchor="middle" fill="#555">按viewType分组存储ViewHolder</text>
    <text x="575" y="540" font-family="Arial" font-size="12" text-anchor="middle" fill="#555">每种viewType默认5个，需要重新绑定数据</text>
    
    <!-- 连接手机和缓存的箭头 -->
    <!-- 第一级缓存连接 -->
    <path d="M 280,200 L 340,200 L 340,140 L 400,140" stroke="#ff9500" stroke-width="2" stroke-dasharray="5,3" fill="none" marker-end="url(#arrowhead)"/>
    <text x="340" y="130" font-family="Arial" font-size="10" fill="#666">布局/重用</text>
    
    <!-- 第二级缓存连接 -->
    <path d="M 280,480 L 340,480 L 340,260 L 400,260" stroke="#0085ff" stroke-width="2" stroke-dasharray="5,3" fill="none" marker-end="url(#arrowhead)"/>
    <text x="330" y="240" font-family="Arial" font-size="10" fill="#666">滚出屏幕</text>
    
    <!-- 第三级缓存连接 -->
    <path d="M 340,380 L 400,380" stroke="#00cc66" stroke-width="2" stroke-dasharray="5,3" fill="none" marker-end="url(#arrowhead)"/>
    
    <!-- 第四级缓存连接 -->
    <path d="M 340,500 L 400,500" stroke="#9933ff" stroke-width="2" stroke-dasharray="5,3" fill="none" marker-end="url(#arrowhead)"/>
    
    <!-- 箭头标记定义 -->
    <defs>
        <marker id="arrowhead" markerWidth="10" markerHeight="7" 
                refX="0" refY="3.5" orient="auto">
            <polygon points="0 0, 10 3.5, 0 7" fill="#666"/>
        </marker>
    </defs>
    
    <!-- 流程说明 -->
    <path d="M 575,90 L 575,60 L 650,60 L 650,90" stroke="#333" stroke-width="1.5" fill="none" marker-end="url(#arrowhead)"/>
    <path d="M 575,550 L 575,570 L 400,570 L 400,380" stroke="#333" stroke-width="1.5" fill="none" marker-end="url(#arrowhead)"/>
    <text x="480" y="585" font-family="Arial" font-size="12" fill="#333">缓存未命中时向下一级查找</text>
    
    <!-- 标题 -->
    <text x="400" y="40" font-family="Arial" font-size="20" font-weight="bold" fill="#333">RecyclerView的四级缓存与屏幕关系</text>
</svg> 