<?xml version="1.0" encoding="UTF-8" standalone="no"?>
<svg width="800" height="650" xmlns="http://www.w3.org/2000/svg" viewBox="0 0 800 650">

  <!-- 定义样式 -->
  <defs>
    <style>
      .title {
        font-family: 'Arial', sans-serif;
        font-size: 22px;
        font-weight: bold;
        text-anchor: middle;
      }
      .subtitle {
        font-family: 'Arial', sans-serif;
        font-size: 14px;
        font-weight: bold;
        text-anchor: middle;
      }
      .label {
        font-family: 'Arial', sans-serif;
        font-size: 12px;
        text-anchor: middle;
      }
      .small-label {
        font-family: 'Arial', sans-serif;
        font-size: 10px;
        text-anchor: middle;
      }
      .arrow {
        stroke: #333;
        stroke-width: 1.5;
        fill: none;
        marker-end: url(#arrowhead);
      }
      .phone-frame {
        fill: #f0f0f0;
        stroke: #555;
        stroke-width: 2;
      }
      .recyclerview {
        fill: #e5f5ff;
        stroke: #3498db;
        stroke-width: 1.5;
      }
      .item {
        fill: #fff;
        stroke: #555;
        stroke-width: 1;
      }
      .item-changed {
        fill: #ffe0e0;
        stroke: #d35400;
        stroke-width: 1;
      }
      .attached-scrap {
        fill: #e6f2ff;
        stroke: #3498db;
        stroke-width: 1.5;
      }
      .changed-scrap {
        fill: #fff0e5;
        stroke: #d35400;
        stroke-width: 1.5;
      }
    </style>
    <marker id="arrowhead" markerWidth="8" markerHeight="6" refX="7" refY="3" orient="auto">
      <polygon points="0 0, 8 3, 0 6" fill="#333" />
    </marker>
  </defs>

  <!-- 背景 -->
  <rect width="800" height="650" fill="#ffffff" />

  <!-- 标题 -->
  <text x="400" y="35" class="title">mAttachedScrap和mChangedScrap工作原理</text>

  <!-- 手机Frame - 预布局阶段 -->
  <g transform="translate(130, 130)">
    <rect x="0" y="0" width="160" height="280" rx="15" class="phone-frame" />
    <text x="80" y="-15" class="subtitle">预布局阶段</text>
    
    <!-- RecyclerView -->
    <rect x="10" y="25" width="140" height="230" class="recyclerview" />
    <text x="80" y="15" class="small-label">RecyclerView</text>
    
    <!-- 正常Items -->
    <rect x="20" y="45" width="120" height="35" class="item" />
    <text x="80" y="65" class="small-label">Item 1</text>
    
    <rect x="20" y="90" width="120" height="35" class="item" />
    <text x="80" y="110" class="small-label">Item 2</text>
    
    <!-- 已改变的Items -->
    <rect x="20" y="135" width="120" height="35" class="item-changed" />
    <text x="80" y="155" class="small-label">Item 3 (已改变)</text>
    
    <rect x="20" y="180" width="120" height="35" class="item" />
    <text x="80" y="200" class="small-label">Item 4</text>
  </g>
  
  <!-- 手机Frame - 过渡阶段 -->
  <g transform="translate(370, 130)">
    <rect x="0" y="0" width="160" height="280" rx="15" class="phone-frame" />
    <text x="80" y="-15" class="subtitle">过渡阶段</text>
    
    <!-- RecyclerView -->
    <rect x="10" y="25" width="140" height="230" class="recyclerview" />
    <text x="80" y="15" class="small-label">RecyclerView</text>
    
    <!-- 临时移除所有Items -->
    <text x="80" y="130" class="label">临时detach</text>
    <text x="80" y="150" class="label">所有Items</text>
  </g>
  
  <!-- 手机Frame - 后布局阶段 -->
  <g transform="translate(610, 130)">
    <rect x="0" y="0" width="160" height="280" rx="15" class="phone-frame" />
    <text x="80" y="-15" class="subtitle">后布局阶段</text>
    
    <!-- RecyclerView -->
    <rect x="10" y="25" width="140" height="230" class="recyclerview" />
    <text x="80" y="15" class="small-label">RecyclerView</text>
    
    <!-- 可能重新排列的Items -->
    <rect x="20" y="45" width="120" height="35" class="item" />
    <text x="80" y="65" class="small-label">Item 1</text>
    
    <rect x="20" y="90" width="120" height="35" class="item" />
    <text x="80" y="110" class="small-label">Item 2</text>
    
    <rect x="20" y="135" width="120" height="35" class="item" />
    <text x="80" y="155" class="small-label">Item 4</text>
    
    <!-- Item 3已被移除 -->
    <text x="80" y="195" class="small-label">Item 3已移除</text>
  </g>
  
  <!-- 缓存容器 -->
  <g transform="translate(220, 440)">
    <!-- mAttachedScrap -->
    <rect x="0" y="0" width="150" height="120" class="attached-scrap" />
    <text x="75" y="-10" class="subtitle">mAttachedScrap</text>
    
    <rect x="10" y="15" width="130" height="25" class="item" />
    <text x="75" y="30" class="small-label">Item 1</text>
    
    <rect x="10" y="50" width="130" height="25" class="item" />
    <text x="75" y="65" class="small-label">Item 2</text>
    
    <rect x="10" y="85" width="130" height="25" class="item" />
    <text x="75" y="100" class="small-label">Item 4</text>
  </g>
  
  <g transform="translate(430, 440)">
    <!-- mChangedScrap -->
    <rect x="0" y="0" width="150" height="100" class="changed-scrap" />
    <text x="75" y="-10" class="subtitle">mChangedScrap</text>
    
    <rect x="10" y="30" width="130" height="25" class="item-changed" />
    <text x="75" y="45" class="small-label">Item 3 (已改变)</text>
  </g>
  
  <!-- 箭头 -->
  <!-- 从普通Items (Item 1, Item 2, Item 4)到mAttachedScrap -->
  <path d="M190,195 C220,250 250,350 285,462" class="arrow" />
  <path d="M190,240 C220,280 250,380 285,497" class="arrow" />
  <path d="M190,330 C220,350 250,400 285,532" class="arrow" />
  <text x="260" y="350" class="small-label">存入未变化视图</text>
  
  <!-- 从Item 3(已改变)到mChangedScrap -->  
  <path d="M190,285 C250,320 350,400 495,477" class="arrow" />
  <text x="320" y="330" class="small-label">存入已改变视图</text>
  
  <!-- 从缓存到后布局 -->
  <path d="M285,462 C400,400 500,300 630,65" class="arrow" />
  <path d="M285,497 C400,420 500,330 630,110" class="arrow" />
  <path d="M285,532 C400,450 500,350 630,155" class="arrow" />
  <text x="400" y="350" class="small-label">复用未变化视图</text>
  <path d="M495,477 C530,400 590,300 630,195" class="arrow" />
  <text x="560" y="350" class="small-label">复用已改变视图</text>
  
  <!-- 从预布局到过渡阶段 -->
  <path d="M290,180 L370,180" class="arrow" />
  <text x="330" y="165" class="small-label">临时分离</text>
  
  <!-- 从过渡阶段到后布局 -->
  <path d="M530,180 L610,180" class="arrow" />
  <text x="570" y="165" class="small-label">重新布局</text>
  
  <!-- 说明文本 -->
  <text x="400" y="610" class="label">① 布局准备阶段：所有Items临时detach并根据状态分配到对应Scrap缓存</text>
  <text x="400" y="630" class="label">② 布局执行阶段：从Scrap缓存中获取ViewHolder进行复用，完成布局后清空缓存</text>

</svg> 